<svg width="86" height="32" viewBox="0 0 86 32" fill="none" xmlns="http://www.w3.org/2000/svg">
<g clip-path="url(#clip0_874_70855)">
<path d="M85.299 4.34113C80.3817 6.29463 75.1918 7.4286 69.9258 7.70009C70.1882 11.7773 72.7915 16.2401 74.9215 16.2401C80.3186 16.2401 84.6558 7.00295 85.5716 5.02771C85.9215 4.29359 85.654 4.18268 85.299 4.34113Z" fill="url(#paint0_linear_874_70855)"/>
<path d="M72.8684 5.97847C70.2959 5.02782 70.8104 0.475254 70.7538 0.168933C70.4966 -0.829252 66.5967 2.69344 66.5967 5.08592C66.5967 6.0841 67.2295 6.40098 68.2688 6.43267C69.8075 6.42233 71.3427 6.27923 72.8581 6.00488C72.8941 6.01016 72.889 5.98375 72.8684 5.97847Z" fill="url(#paint1_linear_874_70855)"/>
<path fill-rule="evenodd" clip-rule="evenodd" d="M0.000221024 23.0109V10.7686C-0.00306402 10.581 0.0302991 10.3946 0.0983409 10.2205C0.166383 10.0463 0.267724 9.88789 0.396384 9.75459C0.521561 9.61982 0.672605 9.51315 0.839976 9.44134C1.00735 9.36952 1.18741 9.33412 1.36878 9.33736H2.70133V14.4233H8.10355V9.33736H10.8407V23.0109H8.10355V16.9267H2.70133V23.0109H0.000221024Z" fill="#DA2128"/>
<path fill-rule="evenodd" clip-rule="evenodd" d="M12.1885 23.011V10.7687C12.1878 10.5805 12.2234 10.3941 12.2932 10.2201C12.3631 10.0462 12.4657 9.88811 12.5953 9.75506C12.725 9.62202 12.8789 9.51662 13.0484 9.44494C13.2179 9.37326 13.3995 9.33671 13.5828 9.33741H16.9785C19.0159 9.33741 20.5388 9.89372 21.5472 11.0063C22.5762 12.1682 23.0547 13.8953 23.0547 16.1715C23.0791 17.2947 22.9048 18.4131 22.5402 19.4724C22.2024 20.372 21.6421 21.1657 20.9144 21.7751C20.3558 22.2129 19.7172 22.5308 19.0364 22.7099C18.1109 22.9294 17.1613 23.0235 16.2119 22.9898L12.1885 23.011ZM14.8587 20.5445H16.6029C17.8685 20.5445 18.7946 20.2013 19.3914 19.4883C19.9883 18.7753 20.2404 17.7401 20.2404 16.1504C20.2404 14.5607 19.9728 13.5097 19.4275 12.7703C19.1295 12.4013 18.7485 12.1122 18.3173 11.9282C17.8861 11.7441 17.4178 11.6707 16.9527 11.714H14.8587V20.5445Z" fill="#DA2128"/>
<path fill-rule="evenodd" clip-rule="evenodd" d="M24.3669 23.011V10.7687C24.3634 10.5806 24.3972 10.3937 24.4662 10.2194C24.5352 10.0451 24.6379 9.88699 24.7683 9.75468C24.8954 9.61961 25.0482 9.51286 25.2173 9.44108C25.3864 9.36929 25.568 9.33402 25.7509 9.33745H30.5924C31.6974 9.26086 32.7955 9.56777 33.7102 10.2089C34.0666 10.5293 34.3487 10.9276 34.5356 11.3745C34.7226 11.8213 34.8097 12.3055 34.7907 12.7915C34.8089 13.4052 34.6611 14.0122 34.3636 14.5449C34.0659 15.0011 33.6535 15.3661 33.17 15.6012C33.7888 15.851 34.3246 16.2781 34.7135 16.8318C35.0768 17.427 35.2561 18.1211 35.228 18.8228C35.2597 19.3996 35.1663 19.9764 34.9546 20.5116C34.7428 21.0468 34.418 21.527 34.0035 21.9177C32.9611 22.6932 31.6861 23.0671 30.402 22.974L24.3669 23.011ZM26.9806 14.6241H30.0984C30.6107 14.6626 31.1217 14.5351 31.5596 14.2597C31.7169 14.1248 31.8405 13.9534 31.9202 13.7595C31.9998 13.5657 32.0332 13.3551 32.0175 13.1453C32.0332 12.9363 31.9998 12.7265 31.9201 12.5335C31.8405 12.3406 31.7168 12.17 31.5596 12.0362C31.1039 11.7705 30.5785 11.6579 30.0573 11.7141H26.9703L26.9806 14.6241ZM26.9806 20.5446H30.2116C30.7936 20.5828 31.3722 20.4292 31.8632 20.1062C32.0501 19.9412 32.1947 19.7317 32.2844 19.496C32.3741 19.2603 32.4061 19.0056 32.3777 18.7542C32.4031 18.4975 32.3698 18.2383 32.2805 17.9972C32.1912 17.7561 32.0483 17.5397 31.8632 17.3652C31.356 17.0519 30.7653 16.9114 30.1756 16.9638H26.9806V20.5446Z" fill="#58595B"/>
<path fill-rule="evenodd" clip-rule="evenodd" d="M56.1266 23.0111H54.7529C54.5757 23.0186 54.3989 22.9888 54.2335 22.9233C54.068 22.8579 53.9173 22.7584 53.7908 22.6308C53.6655 22.5048 53.5674 22.3532 53.5027 22.1858C53.438 22.0184 53.4082 21.839 53.4152 21.6591V15.9816C53.4373 15.7195 53.3974 15.4559 53.2989 15.2131C53.2003 14.9704 53.0461 14.7557 52.8493 14.5873C52.482 14.3026 52.0335 14.1503 51.5733 14.1542C51.1189 14.1468 50.6758 14.2997 50.318 14.5873C50.1253 14.7584 49.9749 14.974 49.8792 15.2164C49.7835 15.4588 49.7452 15.721 49.7674 15.9816V23.0111H47.02V16.5361C47.02 14.7369 47.4848 13.531 48.4143 12.9183C49.3396 12.3128 50.4048 11.9701 51.5013 11.9254C52.6228 11.9176 53.7235 12.2362 54.6757 12.8444C55.643 13.4518 56.1318 14.6823 56.1318 16.5414L56.1266 23.0111Z" fill="#58595B"/>
<path fill-rule="evenodd" clip-rule="evenodd" d="M44.4937 12.6752C43.7374 12.1471 42.6004 11.9147 41.0877 11.9147C39.9745 11.8404 38.8706 12.1653 37.9647 12.8337C37.6531 13.0804 37.3921 13.388 37.197 13.7388C37.0018 14.0896 36.8763 14.4767 36.8277 14.8776H39.5443C39.6051 14.7335 39.6947 14.604 39.8072 14.4976C39.9198 14.3912 40.0528 14.3101 40.1977 14.2596C40.5295 14.1474 40.8774 14.0939 41.2267 14.1012C41.617 14.1064 42.0048 14.1668 42.3791 14.2808C42.5595 14.3091 42.7235 14.4043 42.8401 14.5483C42.9567 14.6923 43.0178 14.8752 43.012 15.0624C43.012 15.5906 42.4151 15.9391 41.2267 16.1187C41.0089 16.1396 40.7925 16.1732 40.5784 16.219C40.4091 16.255 40.2368 16.2745 40.0639 16.2771C39.1671 16.396 38.3094 16.7268 37.5583 17.2436C36.874 17.7242 36.5293 18.5217 36.5293 19.6467C36.5293 20.7716 36.8946 21.7064 37.6252 22.2293C38.3822 22.7591 39.2817 23.0324 40.1977 23.0109C41.3058 23.0935 42.4123 22.8302 43.3721 22.2557C43.4243 22.409 43.5047 22.5506 43.6088 22.6729C43.7154 22.7948 43.8465 22.8915 43.9931 22.9563C44.1396 23.021 44.2982 23.0523 44.4577 23.0479H45.6719V14.9198C45.6862 14.4722 45.5847 14.0287 45.3777 13.6344C45.1708 13.2401 44.8657 12.9092 44.4937 12.6752V12.6752ZM43.0325 18.4425C43.0499 18.7667 43.0012 19.0909 42.8896 19.3947C42.778 19.6984 42.6059 19.9749 42.3843 20.2065C42.1423 20.4284 41.8601 20.5991 41.5537 20.7088C41.2473 20.8184 40.9229 20.8649 40.599 20.8456C40.2306 20.8648 39.8672 20.7529 39.57 20.5287C39.4476 20.4031 39.352 20.2529 39.2891 20.0874C39.2262 19.9219 39.1975 19.7449 39.2047 19.5675C39.2126 19.2505 39.313 18.9432 39.4928 18.6855C39.7969 18.4234 40.1591 18.242 40.5475 18.1573L41.453 17.9566C41.9963 17.8384 42.5257 17.6614 43.0325 17.4285V18.4425Z" fill="#58595B"/>
<path fill-rule="evenodd" clip-rule="evenodd" d="M60.14 12.4376V16.1346L63.3813 11.9094H66.5866L62.9851 16.4779L66.6432 23.0004H63.4379L61.5754 19.4196C61.1895 18.7066 60.8603 18.4003 60.5773 18.5059C60.2943 18.6115 60.1605 18.7753 60.1605 18.9812V23.0004H57.4697V9.3374H58.8434C59.1826 9.34137 59.507 9.47999 59.7487 9.72418C59.9905 9.96838 60.1307 10.2992 60.14 10.6472V12.4376Z" fill="#58595B"/>
<path d="M2.7067 26.6446V27.1727H2.34141C2.12683 27.1695 1.91368 27.2089 1.71372 27.2889C1.52368 27.359 1.34888 27.4666 1.19922 27.6058C1.05558 27.7438 0.941668 27.9111 0.8648 28.097C0.78561 28.2891 0.745348 28.4957 0.746466 28.7043C0.73837 29.0007 0.811455 29.2935 0.95741 29.5493C1.08018 29.7553 1.25155 29.9262 1.45568 30.0462C1.65981 30.1662 1.89012 30.2315 2.12532 30.2359H2.7067V30.7641H2.13561C1.78696 30.7683 1.44374 30.6752 1.14263 30.4947C0.85006 30.3175 0.609966 30.0619 0.448057 29.7553C0.278998 29.4307 0.193963 29.067 0.201098 28.699C0.200541 28.3556 0.289352 28.0183 0.458347 27.722C0.6292 27.3958 0.883596 27.1237 1.19408 26.9351C1.52296 26.7322 1.90126 26.6297 2.28481 26.6393L2.7067 26.6446Z" fill="#58595B"/>
<path d="M3.53458 29.3328C3.52801 29.5899 3.61832 29.8396 3.78668 30.03C3.86926 30.1193 3.96915 30.1899 4.07992 30.2372C4.19068 30.2845 4.30987 30.3075 4.42981 30.3046C4.54983 30.3081 4.66921 30.2855 4.78007 30.2381C4.89093 30.1908 4.99075 30.1199 5.07293 30.03C5.24368 29.8411 5.33436 29.5903 5.32503 29.3328C5.33092 29.2044 5.31163 29.0761 5.26833 28.9554C5.22503 28.8348 5.15858 28.7242 5.07293 28.6304C4.99049 28.5412 4.89051 28.4711 4.77962 28.4247C4.66873 28.3782 4.54949 28.3565 4.42981 28.3611C4.31021 28.3572 4.19116 28.3792 4.08037 28.4256C3.96958 28.472 3.86952 28.5418 3.78668 28.6304C3.61563 28.8212 3.52501 29.0737 3.53458 29.3328ZM3.02008 29.3328C3.01763 29.132 3.05437 28.9327 3.12813 28.7466C3.19938 28.5706 3.30637 28.4121 3.44197 28.2818C3.57217 28.1545 3.7262 28.0557 3.89473 27.9914C4.24003 27.8505 4.62473 27.8505 4.97003 27.9914C5.1395 28.0587 5.29362 28.1612 5.42279 28.2924C5.55758 28.4254 5.6644 28.5854 5.73663 28.7625C5.88756 29.1379 5.88756 29.5595 5.73663 29.9349C5.66556 30.1098 5.56052 30.2679 5.42793 30.3997C5.29698 30.5286 5.14333 30.6308 4.97517 30.7007C4.62759 30.8483 4.23717 30.8483 3.88958 30.7007C3.72012 30.6334 3.56599 30.5309 3.43683 30.3997C3.30325 30.2676 3.19657 30.1097 3.12298 29.9349C3.04773 29.7438 3.01097 29.539 3.01494 29.3328H3.02008Z" fill="#58595B"/>
<path d="M6.79672 30.7377H6.28223V28.8312C6.2827 28.6621 6.3271 28.4962 6.41085 28.3506C6.49872 28.2023 6.62289 28.0803 6.771 27.9967C6.9288 27.9091 7.10617 27.8654 7.2855 27.8699C7.43614 27.8796 7.58325 27.9209 7.71767 27.9914C7.8561 28.0569 7.97507 28.159 8.06239 28.2872C8.14899 28.1603 8.26593 28.0585 8.40196 27.9914C8.54505 27.9223 8.70174 27.888 8.85986 27.8911C8.99357 27.8902 9.12625 27.9153 9.25088 27.965C9.36567 28.0127 9.47047 28.0827 9.55957 28.171C9.64803 28.2574 9.7181 28.3617 9.76537 28.4773C9.81346 28.5961 9.83795 28.7236 9.8374 28.8523V30.7377H9.32291V28.9421C9.33088 28.7891 9.28321 28.6385 9.18914 28.5196C9.14482 28.4681 9.09008 28.4273 9.02875 28.3999C8.96742 28.3726 8.90099 28.3593 8.83413 28.3611C8.47399 28.3611 8.31964 28.5829 8.31964 29.0266V30.7377H7.80514V29.0477C7.80514 28.6041 7.62506 28.3822 7.29064 28.3822C7.22379 28.3804 7.15736 28.3937 7.09603 28.4211C7.0347 28.4484 6.97995 28.4893 6.93564 28.5407C6.84156 28.6596 6.79389 28.8102 6.80187 28.9632L6.79672 30.7377Z" fill="#58595B"/>
<path d="M10.9076 30.7377H10.3931V28.8312C10.3912 28.6617 10.4358 28.4952 10.5217 28.3506C10.6091 28.2037 10.7312 28.082 10.8768 27.9967C11.0346 27.9091 11.2119 27.8654 11.3912 27.8699C11.5452 27.8792 11.6958 27.9205 11.8337 27.9914C11.9697 28.0585 12.0867 28.1603 12.1733 28.2872C12.2631 28.1613 12.3814 28.0598 12.518 27.9914C12.6595 27.9231 12.8144 27.8888 12.9708 27.8911C13.1045 27.8902 13.2371 27.9153 13.3618 27.965C13.4766 28.0127 13.5814 28.0827 13.6705 28.171C13.7589 28.2574 13.829 28.3617 13.8763 28.4773C13.9285 28.595 13.9548 28.723 13.9534 28.8523V30.7377H13.4389V28.9421C13.4495 28.7887 13.4016 28.6372 13.3052 28.5196C13.2616 28.4673 13.207 28.4258 13.1455 28.3984C13.084 28.3709 13.0172 28.3582 12.9502 28.3611C12.5952 28.3611 12.4357 28.5829 12.4357 29.0266V30.7377H11.9212V29.0477C11.9212 28.6041 11.7411 28.3822 11.4067 28.3822C11.339 28.3797 11.2715 28.3925 11.2093 28.4199C11.147 28.4473 11.0914 28.4886 11.0465 28.5407C10.9525 28.6596 10.9048 28.8102 10.9128 28.9632L10.9076 30.7377Z" fill="#58595B"/>
<path d="M14.7817 27.2994C14.7824 27.2307 14.8081 27.1647 14.8538 27.1145C14.8768 27.0896 14.9048 27.07 14.9359 27.0573C14.967 27.0445 15.0004 27.0388 15.0338 27.0406C15.0672 27.0395 15.1004 27.0455 15.1314 27.0582C15.1624 27.071 15.1905 27.0901 15.2139 27.1145C15.2605 27.1641 15.2863 27.2305 15.2859 27.2994C15.2856 27.3666 15.2597 27.431 15.2139 27.479C15.1913 27.5045 15.1634 27.5244 15.1322 27.5373C15.101 27.5501 15.0674 27.5554 15.0338 27.5529C15.0003 27.5558 14.9665 27.5507 14.9353 27.5378C14.904 27.525 14.8761 27.5048 14.8538 27.479C14.808 27.431 14.7821 27.3666 14.7817 27.2994V27.2994ZM15.2962 30.7376H14.7817V27.9279H15.2962V30.7376Z" fill="#58595B"/>
<path d="M17.6423 27.928V28.4192H16.6596V29.8927C16.6546 29.9418 16.6603 29.9915 16.6763 30.0381C16.6923 30.0847 16.7183 30.127 16.7522 30.162C16.8324 30.2265 16.9338 30.2568 17.0352 30.2465H17.6423V30.7377H16.9786C16.8683 30.7436 16.758 30.7243 16.6558 30.6814C16.5535 30.6385 16.4617 30.573 16.3869 30.4895C16.2352 30.3059 16.1579 30.0697 16.1708 29.8293V27.2256H16.6853V27.928H17.6423Z" fill="#58595B"/>
<path d="M19.5511 27.928V28.4192H18.5736V29.8927C18.5689 29.9414 18.5743 29.9905 18.5894 30.0369C18.6044 30.0833 18.6288 30.126 18.661 30.162C18.7433 30.2264 18.8462 30.2565 18.9491 30.2465H19.5511V30.7377H18.8822C18.7712 30.7433 18.6603 30.7239 18.5572 30.6811C18.4542 30.6382 18.3614 30.5728 18.2854 30.4895C18.1356 30.3052 18.0601 30.069 18.0745 29.8293V27.2256H18.589V27.928H19.5511Z" fill="#58595B"/>
<path d="M22.5302 28.7572L20.6832 29.8135L20.4774 29.4015L21.8254 28.6304C21.7493 28.5431 21.6565 28.473 21.5527 28.4245C21.4421 28.3768 21.3226 28.3551 21.2028 28.3611C21.084 28.3576 20.9659 28.3798 20.856 28.4262C20.7461 28.4726 20.6469 28.5422 20.5648 28.6304C20.4792 28.7243 20.4127 28.8348 20.3694 28.9554C20.3261 29.0761 20.3069 29.2044 20.3127 29.3329C20.3102 29.4615 20.3325 29.5893 20.3784 29.709C20.4243 29.8286 20.493 29.9378 20.5803 30.03C20.6621 30.1189 20.7611 30.1893 20.871 30.2366C20.9808 30.2839 21.0991 30.3071 21.2183 30.3046C21.3329 30.313 21.448 30.2967 21.5561 30.2567C21.6642 30.2166 21.7629 30.1538 21.8459 30.0723C21.995 29.8861 22.0911 29.6613 22.1238 29.4226L22.6383 29.4913C22.6213 29.7281 22.5471 29.9569 22.4222 30.1568C22.2944 30.3562 22.1167 30.5168 21.9077 30.6215C21.6922 30.7384 21.4517 30.7983 21.208 30.7958C21.0311 30.7933 20.8564 30.7557 20.6935 30.6849C20.5224 30.6177 20.3666 30.5152 20.2356 30.3839C20.1019 30.253 19.9968 30.0946 19.9269 29.9191C19.8495 29.734 19.811 29.5343 19.8137 29.3329C19.8103 29.1314 19.8489 28.9315 19.9269 28.7466C19.9981 28.5719 20.1031 28.4137 20.2356 28.2819C20.3658 28.1483 20.5218 28.0439 20.6935 27.9755C20.8574 27.9088 21.0317 27.873 21.208 27.8699C21.4891 27.862 21.7657 27.9431 22.0003 28.1023C22.2244 28.2709 22.4018 28.4966 22.5148 28.7572" fill="#58595B"/>
<path d="M25.2105 26.6445H25.725V29.2535C25.726 29.4641 25.6912 29.6732 25.6221 29.8715C25.5601 30.0554 25.462 30.2244 25.334 30.3679C25.2122 30.5047 25.063 30.6128 24.8966 30.6848C24.7223 30.7595 24.5351 30.7973 24.3461 30.7957C24.0817 30.8024 23.8209 30.7309 23.595 30.5897C23.3735 30.4592 23.1945 30.2645 23.0805 30.0299C22.967 29.7915 22.9089 29.5294 22.9107 29.2641C22.9118 29.0824 22.9485 28.9028 23.0187 28.736C23.0853 28.5684 23.1831 28.4159 23.3068 28.287C23.4272 28.161 23.5706 28.0605 23.7287 27.9913C23.8911 27.9193 24.0664 27.8833 24.2432 27.8857C24.5132 27.8821 24.7793 27.9513 25.015 28.0864V28.6145C24.9486 28.5657 24.878 28.5233 24.804 28.4877C24.7278 28.4509 24.6486 28.4208 24.5674 28.398C24.4901 28.3774 24.4106 28.3668 24.3307 28.3663C24.204 28.3636 24.0781 28.387 23.9603 28.4349C23.8545 28.4806 23.7584 28.547 23.6773 28.6303C23.5955 28.7182 23.5325 28.8225 23.4921 28.9367C23.4496 29.0641 23.4287 29.1981 23.4303 29.3328C23.4272 29.507 23.466 29.6794 23.5435 29.8345C23.6169 29.9818 23.7316 30.1032 23.8728 30.1831C24.0146 30.2687 24.1765 30.3125 24.341 30.3098C24.4973 30.3124 24.651 30.2684 24.7835 30.1831C24.9256 30.0886 25.0367 29.9524 25.1024 29.7922C25.1822 29.5914 25.2191 29.3752 25.2105 29.1585V26.6445Z" fill="#58595B"/>
<path d="M29.3523 27.928V28.4192H28.3747V29.8927C28.3691 29.9414 28.374 29.9909 28.3891 30.0374C28.4042 30.084 28.4292 30.1266 28.4622 30.162C28.5424 30.2265 28.6438 30.2568 28.7452 30.2465H29.3523V30.7377H28.6834C28.5723 30.7436 28.4613 30.7244 28.3582 30.6816C28.2551 30.6387 28.1624 30.5731 28.0866 30.4895C27.9349 30.3059 27.8576 30.0697 27.8705 29.8293V27.2256H28.385V27.928H29.3523Z" fill="#58595B"/>
<path d="M30.1191 29.3328C30.1083 29.5877 30.193 29.8372 30.3558 30.03C30.44 30.1172 30.5402 30.1864 30.6506 30.2336C30.7609 30.2808 30.8793 30.3051 30.9989 30.3051C31.1185 30.3051 31.2369 30.2808 31.3473 30.2336C31.4577 30.1864 31.5579 30.1172 31.6421 30.03C31.7275 29.9369 31.7942 29.8274 31.8384 29.7077C31.8825 29.5881 31.9032 29.4607 31.8993 29.3328C31.9052 29.2044 31.8859 29.076 31.8426 28.9554C31.7993 28.8347 31.7329 28.7242 31.6472 28.6304C31.4752 28.4581 31.2444 28.3617 31.0041 28.3617C30.7638 28.3617 30.533 28.4581 30.361 28.6304C30.1899 28.8212 30.0993 29.0737 30.1089 29.3328H30.1191ZM29.5944 29.3328C29.5919 29.132 29.6286 28.9326 29.7024 28.7466C29.7755 28.5716 29.8822 28.4135 30.0162 28.2818C30.1465 28.1482 30.3025 28.0439 30.4741 27.9755C30.6379 27.9081 30.8123 27.8723 30.9886 27.8699C31.1649 27.8729 31.3393 27.9087 31.5031 27.9755C31.6726 28.0428 31.8267 28.1453 31.9559 28.2765C32.0907 28.4096 32.1975 28.5695 32.2697 28.7466C32.4207 29.1221 32.4207 29.5436 32.2697 29.9191C32.1987 30.0939 32.0936 30.252 31.961 30.3838C31.8301 30.5127 31.6764 30.6149 31.5083 30.6849C31.3356 30.759 31.1501 30.7968 30.9629 30.7958C30.786 30.7934 30.6113 30.7557 30.4484 30.6849C30.2768 30.6189 30.1207 30.5163 29.9905 30.3838C29.8569 30.2518 29.7503 30.0938 29.6767 29.9191C29.614 29.7307 29.5877 29.5315 29.5995 29.3328H29.5944Z" fill="#58595B"/>
<path d="M34.4714 27.928H34.9859V29.6127C34.9768 29.7938 35.0357 29.9715 35.1505 30.1092C35.2782 30.2317 35.4465 30.2999 35.6213 30.2999C35.7961 30.2999 35.9643 30.2317 36.092 30.1092C36.2073 29.9717 36.2663 29.7938 36.2567 29.6127V27.928H36.7712V29.618C36.7917 29.8921 36.7118 30.1643 36.5472 30.3811C36.3826 30.598 36.145 30.7439 35.8811 30.7905V31.9999H35.3666V30.7905C35.1017 30.7451 34.8629 30.5996 34.6972 30.3827C34.5316 30.1657 34.451 29.8929 34.4714 29.618V27.928Z" fill="#58595B"/>
<path d="M37.7182 29.3329C37.7089 29.5904 37.7996 29.8412 37.9704 30.0301C38.0545 30.1173 38.1547 30.1865 38.2651 30.2337C38.3755 30.2809 38.4939 30.3053 38.6135 30.3053C38.7331 30.3053 38.8515 30.2809 38.9618 30.2337C39.0722 30.1865 39.1724 30.1173 39.2566 30.0301C39.4273 29.8412 39.518 29.5904 39.5087 29.3329C39.5146 29.2045 39.4953 29.0762 39.452 28.9555C39.4087 28.8348 39.3422 28.7243 39.2566 28.6305C39.0846 28.4582 38.8538 28.3618 38.6135 28.3618C38.3732 28.3618 38.1424 28.4582 37.9704 28.6305C37.8847 28.7243 37.8182 28.8348 37.7749 28.9555C37.7316 29.0762 37.7124 29.2045 37.7182 29.3329V29.3329ZM37.2037 29.3329C37.2029 29.1317 37.2414 28.9324 37.3169 28.7467C37.3882 28.5707 37.4952 28.4122 37.6308 28.2819C37.7585 28.1565 37.9088 28.0578 38.0732 27.9915C38.4204 27.8508 38.8066 27.8508 39.1537 27.9915C39.3232 28.0588 39.4773 28.1613 39.6065 28.2925C39.7412 28.4255 39.8481 28.5855 39.9203 28.7625C40.0712 29.138 40.0712 29.5596 39.9203 29.935C39.8492 30.1099 39.7442 30.268 39.6116 30.3998C39.4797 30.5275 39.3263 30.6295 39.1588 30.7008C38.9005 30.8074 38.6177 30.8357 38.3441 30.7823C38.0706 30.729 37.8176 30.5962 37.6153 30.3998C37.4817 30.2689 37.3765 30.1105 37.3066 29.935C37.2296 29.7443 37.1911 29.5394 37.1935 29.3329H37.2037Z" fill="#58595B"/>
<path d="M42.2867 27.928H42.8012V29.5758C42.8057 29.7991 42.7525 30.0196 42.6468 30.2148C42.5523 30.398 42.4074 30.5486 42.2301 30.6479C42.0485 30.7544 41.8424 30.8091 41.6333 30.8063C41.4225 30.809 41.2148 30.7543 41.0313 30.6479C40.8551 30.5472 40.7105 30.3969 40.6146 30.2148C40.5094 30.0192 40.4545 29.7992 40.4551 29.5758V27.9385H40.9696V29.5758C40.9673 29.7087 40.9993 29.8399 41.0622 29.956C41.1169 30.0644 41.1996 30.1552 41.3013 30.2185C41.4029 30.2819 41.5195 30.3153 41.6384 30.3152C41.7547 30.3157 41.8687 30.2827 41.9677 30.2201C42.0709 30.1555 42.1559 30.0645 42.2147 29.956C42.2737 29.8385 42.3037 29.708 42.3021 29.5758L42.2867 27.928Z" fill="#58595B"/>
<path d="M43.2954 30.7377V27.928H43.7739V28.2501C43.8481 28.1273 43.9529 28.0271 44.0774 27.9596C44.2151 27.8973 44.3643 27.8666 44.5148 27.8699H44.628V28.361H44.5559C44.0414 28.361 43.7893 28.7149 43.7893 29.4173V30.7377H43.2954Z" fill="#58595B"/>
<path d="M46.4386 26.6445H46.9531V29.1585C46.9328 29.4624 47.0226 29.7634 47.2052 30.0035C47.2805 30.0995 47.3763 30.1765 47.485 30.2287C47.5938 30.2809 47.7128 30.3068 47.8329 30.3045C47.9599 30.3046 48.0856 30.2795 48.2033 30.2306C48.3116 30.1845 48.4097 30.1162 48.4914 30.0299C48.5703 29.9379 48.633 29.8324 48.6767 29.7183C48.7228 29.5935 48.7455 29.4609 48.7436 29.3275C48.7452 29.1928 48.7243 29.0588 48.6818 28.9314C48.6399 28.818 48.577 28.7139 48.4966 28.6251C48.4173 28.5395 48.3207 28.4728 48.2136 28.4296C48.0976 28.3818 47.9733 28.3585 47.8483 28.361C47.7685 28.3615 47.689 28.3721 47.6117 28.3927C47.5315 28.4138 47.4539 28.4439 47.3801 28.4825C47.3016 28.5152 47.2273 28.5578 47.1589 28.6092V28.0811C47.3966 27.9463 47.6643 27.8772 47.9358 27.8804C48.1126 27.8786 48.2878 27.9146 48.4503 27.986C48.6081 28.0559 48.7514 28.1563 48.8722 28.2818C48.9953 28.408 49.0917 28.5591 49.1552 28.7254C49.2242 28.8926 49.2609 29.072 49.2632 29.2535C49.2643 29.5182 49.2081 29.7798 49.0986 30.0193C48.9814 30.2516 48.8032 30.4456 48.5841 30.5792C48.3579 30.7198 48.0973 30.7913 47.8329 30.7852C47.5833 30.7877 47.3378 30.7201 47.1229 30.5897C46.9058 30.4677 46.7273 30.2844 46.6084 30.0616C46.4879 29.8124 46.4279 29.537 46.4335 29.2588L46.4386 26.6445Z" fill="#58595B"/>
<path d="M52.2884 28.7571L50.4414 29.8134L50.2356 29.4014L51.5887 28.6303C51.5108 28.5453 51.4184 28.4755 51.316 28.4244C51.2052 28.3778 51.0859 28.3562 50.9662 28.361C50.8466 28.3571 50.7275 28.3791 50.6167 28.4255C50.506 28.4719 50.4059 28.5417 50.3231 28.6303C50.152 28.8212 50.0614 29.0737 50.071 29.3328C50.0644 29.5898 50.1547 29.8395 50.3231 30.0299C50.4056 30.1193 50.5055 30.1898 50.6163 30.2371C50.7271 30.2844 50.8462 30.3074 50.9662 30.3046C51.0808 30.3126 51.1958 30.2961 51.3038 30.2561C51.4119 30.2161 51.5107 30.1535 51.5939 30.0722C51.7488 29.8886 51.8488 29.663 51.882 29.4226L52.3965 29.4912C52.3778 29.7285 52.3018 29.9572 52.1753 30.1567C52.0489 30.3574 51.8708 30.5183 51.6608 30.6214C51.4455 30.739 51.2048 30.7989 50.961 30.7957C50.5897 30.7921 50.2333 30.645 49.9629 30.3838C49.831 30.2514 49.726 30.0934 49.6542 29.919C49.5792 29.7332 49.5408 29.5339 49.541 29.3328C49.5402 29.1316 49.5787 28.9322 49.6542 28.7465C49.7255 28.5705 49.8325 28.412 49.9681 28.2818C50.0983 28.1545 50.2523 28.0556 50.4208 27.9913C50.5844 27.9235 50.7589 27.8876 50.9353 27.8857C51.2179 27.8787 51.4959 27.9597 51.7328 28.1181C51.9573 28.2863 52.1347 28.5121 52.2473 28.7729" fill="#58595B"/>
<path d="M52.7054 30.7377V30.2465H54.1049C54.321 30.2465 54.429 30.1567 54.429 29.9772C54.4315 29.9237 54.4167 29.8709 54.3869 29.827C54.3571 29.7831 54.314 29.7505 54.2644 29.7342C54.1512 29.6867 53.9402 29.618 53.6315 29.523C53.3832 29.4562 53.1481 29.3454 52.937 29.1955C52.8582 29.1346 52.7957 29.0542 52.7553 28.9619C52.7148 28.8696 52.6977 28.7683 52.7054 28.6674C52.6991 28.5603 52.7178 28.4531 52.7598 28.3549C52.8019 28.2566 52.8661 28.17 52.9473 28.1023C53.1511 27.9594 53.3955 27.8907 53.6418 27.9069H54.82V28.398H53.5544C53.4665 28.3899 53.3783 28.4102 53.3023 28.4561C53.2786 28.4813 53.26 28.5111 53.2476 28.5438C53.2353 28.5764 53.2293 28.6113 53.2302 28.6463C53.2302 28.7466 53.3331 28.8364 53.5441 28.9103L54.1718 29.1163C54.3697 29.1746 54.5548 29.2714 54.7171 29.4015C54.7948 29.4638 54.8568 29.5442 54.8979 29.6361C54.9391 29.728 54.9583 29.8286 54.9538 29.9296C54.9609 30.0382 54.9438 30.147 54.9037 30.2477C54.8635 30.3484 54.8015 30.4383 54.7223 30.5106C54.5474 30.6535 54.3281 30.7266 54.1049 30.7166L52.7054 30.7377Z" fill="#58595B"/>
<path d="M56.888 27.928V28.4192H55.9104V29.8927C55.9058 29.9414 55.9112 29.9905 55.9262 30.0369C55.9413 30.0833 55.9657 30.126 55.9979 30.162C56.0802 30.2264 56.183 30.2565 56.286 30.2465H56.888V30.7377H56.2191C56.1081 30.7433 55.9972 30.7239 55.8941 30.6811C55.791 30.6382 55.6983 30.5728 55.6223 30.4895C55.4747 30.3039 55.3995 30.0686 55.4114 29.8293V27.2256H55.9259V27.928H56.888Z" fill="#58595B"/>
<path d="M58.8022 30.7377V27.928H59.2807V28.2502C59.3554 28.1258 59.4623 28.0252 59.5894 27.9597C59.7251 27.8969 59.8728 27.8662 60.0216 27.8699H60.1399V28.3611H60.0628C59.5483 28.3611 59.2962 28.715 59.2962 29.4174V30.7377H58.8022Z" fill="#58595B"/>
<path d="M63.047 28.7571L61.1999 29.8134L60.9941 29.4014L62.3473 28.6303C62.2685 28.5438 62.1742 28.4739 62.0694 28.4243C61.9606 28.3771 61.8428 28.3554 61.7247 28.361C61.6051 28.3571 61.4861 28.3791 61.3753 28.4255C61.2645 28.4719 61.1644 28.5417 61.0816 28.6303C60.9959 28.7241 60.9295 28.8347 60.8862 28.9553C60.8429 29.076 60.8236 29.2043 60.8295 29.3328C60.8202 29.5903 60.9108 29.841 61.0816 30.0299C61.1642 30.1192 61.2641 30.1898 61.3748 30.2371C61.4856 30.2844 61.6048 30.3074 61.7247 30.3045C61.8393 30.3126 61.9543 30.2961 62.0624 30.2561C62.1704 30.2161 62.2692 30.1534 62.3524 30.0721C62.5054 29.8873 62.6052 29.6624 62.6405 29.4225L63.155 29.4912C63.1381 29.728 63.0638 29.9568 62.9389 30.1566C62.8125 30.3574 62.6345 30.5182 62.4244 30.6214C62.2089 30.7383 61.9684 30.7982 61.7247 30.7957C61.3534 30.7921 60.997 30.645 60.7266 30.3837C60.593 30.2529 60.4878 30.0945 60.4179 29.919C60.3429 29.7331 60.3044 29.5339 60.3047 29.3328C60.3039 29.1315 60.3424 28.9322 60.4179 28.7465C60.4891 28.5717 60.5941 28.4136 60.7266 28.2818C60.8578 28.1493 61.0135 28.0452 61.1845 27.9754C61.3484 27.9086 61.5227 27.8729 61.699 27.8698C61.9816 27.8628 62.2596 27.9438 62.4965 28.1022C62.7196 28.2718 62.8968 28.4973 63.011 28.7571" fill="#58595B"/>
<path d="M65.1204 27.928V28.4192H64.1377V29.8927C64.1327 29.9418 64.1384 29.9915 64.1544 30.0381C64.1704 30.0847 64.1963 30.127 64.2303 30.162C64.3105 30.2265 64.4119 30.2568 64.5133 30.2465H65.1204V30.7377H64.4464C64.3361 30.7432 64.2259 30.7238 64.1237 30.6809C64.0215 30.638 63.9297 30.5727 63.8547 30.4895C63.703 30.3059 63.6256 30.0697 63.6386 29.8293V27.2256H64.1531V27.928H65.1204Z" fill="#58595B"/>
<path d="M67.2913 27.928H67.8058V29.5758C67.8095 29.7983 67.7582 30.0182 67.6566 30.2148C67.5607 30.3988 67.4139 30.5495 67.2347 30.6479C67.0534 30.7551 66.8471 30.8099 66.6379 30.8063C66.4288 30.8091 66.2227 30.7544 66.0411 30.6479C65.8626 30.5502 65.7173 30.3992 65.6243 30.2148C65.5187 30.0196 65.4655 29.7991 65.47 29.5758V27.9385H65.9845V29.5758C65.9829 29.708 66.0129 29.8385 66.072 29.956C66.1307 30.0645 66.2158 30.1555 66.3189 30.2201C66.4179 30.2827 66.5319 30.3157 66.6482 30.3152C66.7671 30.3153 66.8837 30.2819 66.9854 30.2185C67.087 30.1552 67.1697 30.0644 67.2244 29.956C67.2874 29.8399 67.3193 29.7087 67.317 29.5758L67.2913 27.928Z" fill="#58595B"/>
<path d="M68.2998 30.7377V27.928H68.7783V28.2501C68.8511 28.1261 68.9563 28.0255 69.0818 27.9596C69.2195 27.8973 69.3687 27.8666 69.5192 27.8699H69.6323V28.361H69.5603C69.0458 28.361 68.7886 28.7131 68.7886 29.4173V30.7377H68.2998Z" fill="#58595B"/>
<path d="M70.3887 30.7378H69.8742V29.1005C69.8708 28.8774 69.924 28.6572 70.0285 28.4615C70.1222 28.2763 70.2672 28.1238 70.4453 28.0231C70.6283 27.9208 70.8337 27.8681 71.0421 27.87C71.2506 27.8673 71.4562 27.9201 71.6389 28.0231C71.8169 28.1256 71.9631 28.2776 72.0608 28.4615C72.1612 28.6586 72.2124 28.8781 72.21 29.1005V30.7378H71.6955V29.1005C71.6978 28.9676 71.6658 28.8364 71.6029 28.7203C71.549 28.61 71.465 28.5182 71.3611 28.4562C71.2602 28.3937 71.1445 28.3608 71.0266 28.3611C70.9104 28.3606 70.7963 28.3936 70.6974 28.4562C70.593 28.5192 70.5075 28.6106 70.4504 28.7203C70.3914 28.8378 70.3614 28.9683 70.3629 29.1005L70.3887 30.7378Z" fill="#58595B"/>
<path d="M72.6371 30.7377V30.2465H74.0365C74.2526 30.2465 74.3606 30.1567 74.3606 29.9772C74.3631 29.9237 74.3483 29.8709 74.3185 29.827C74.2887 29.7831 74.2457 29.7505 74.196 29.7342C74.0828 29.6867 73.8719 29.618 73.5632 29.523C73.3148 29.4562 73.0798 29.3454 72.8686 29.1955C72.7899 29.1346 72.7274 29.0542 72.6869 28.9619C72.6465 28.8696 72.6293 28.7683 72.6371 28.6674C72.6308 28.5603 72.6494 28.4531 72.6915 28.3549C72.7335 28.2566 72.7978 28.17 72.8789 28.1023C73.0827 27.9594 73.3272 27.8907 73.5735 27.9069H74.7517V28.398H73.486C73.3981 28.3899 73.3099 28.4102 73.2339 28.4561C73.2102 28.4813 73.1916 28.5111 73.1793 28.5438C73.1669 28.5764 73.161 28.6113 73.1619 28.6463C73.1619 28.7466 73.2648 28.8364 73.4757 28.9103L74.1034 29.1163C74.3013 29.1746 74.4865 29.2714 74.6488 29.4015C74.7264 29.4638 74.7884 29.5442 74.8296 29.6361C74.8707 29.728 74.8899 29.8286 74.8854 29.9296C74.8926 30.0382 74.8754 30.147 74.8353 30.2477C74.7952 30.3484 74.7331 30.4383 74.6539 30.5106C74.4791 30.6535 74.2598 30.7266 74.0365 30.7166L72.6371 30.7377Z" fill="#58595B"/>
</g>
<defs>
<linearGradient id="paint0_linear_874_70855" x1="68.0758" y1="8.93948" x2="86.7216" y2="12.1416" gradientUnits="userSpaceOnUse">
<stop stop-color="#F9A51A"/>
<stop offset="0.5" stop-color="#FFDC00"/>
<stop offset="1" stop-color="#FFDC00"/>
</linearGradient>
<linearGradient id="paint1_linear_874_70855" x1="71.9986" y1="7.48367" x2="68.0421" y2="-0.781616" gradientUnits="userSpaceOnUse">
<stop stop-color="#F9A51A"/>
<stop offset="0.2" stop-color="#FFC10E"/>
<stop offset="0.45" stop-color="#FFDC00"/>
<stop offset="1" stop-color="#FFDC00"/>
</linearGradient>
<clipPath id="clip0_874_70855">
<rect width="85.7358" height="32" fill="white"/>
</clipPath>
</defs>
</svg>
