<svg width="20" height="20" viewBox="0 0 20 20" fill="none" xmlns="http://www.w3.org/2000/svg">
<path d="M9.0835 12.75H10.9168V14.5834H9.0835V12.75ZM9.0835 5.41671H10.9168V10.9167H9.0835V5.41671ZM9.991 0.833374C4.931 0.833374 0.833496 4.94004 0.833496 10C0.833496 15.06 4.931 19.1667 9.991 19.1667C15.0602 19.1667 19.1668 15.06 19.1668 10C19.1668 4.94004 15.0602 0.833374 9.991 0.833374ZM10.0002 17.3334C5.9485 17.3334 2.66683 14.0517 2.66683 10C2.66683 5.94837 5.9485 2.66671 10.0002 2.66671C14.0518 2.66671 17.3335 5.94837 17.3335 10C17.3335 14.0517 14.0518 17.3334 10.0002 17.3334Z" fill="#006FD6"/>
</svg>
