<svg width="101" height="100" viewBox="0 0 101 100" fill="none" xmlns="http://www.w3.org/2000/svg">
<path d="M74.2544 91.0388C73.8257 86.4297 73.7457 85.6135 73.6353 84.943C73.5416 84.4297 73.4175 84.0623 73.3155 84.004C73.2576 83.9019 72.8944 83.7761 72.3842 83.6825C71.7186 83.5705 70.9084 83.49 66.3335 83.0581C70.9084 82.6262 71.7186 82.5448 72.3842 82.4336C72.8944 82.34 73.2568 82.2142 73.3155 82.1122C73.4175 82.0531 73.5416 81.6864 73.6353 81.1732C73.7465 80.5027 73.8264 79.6857 74.2544 75.0774C74.6838 79.6857 74.7638 80.5027 74.8742 81.1732C74.9679 81.6864 75.0927 82.0523 75.1932 82.1122C75.2519 82.2142 75.6167 82.34 76.1253 82.4336C76.7916 82.5456 77.6018 82.6262 82.1752 83.0581C77.6018 83.49 76.7916 83.5705 76.1253 83.6825C75.6167 83.7761 75.2526 83.9019 75.1932 84.004C75.0927 84.0615 74.9679 84.4297 74.8742 84.943C74.7638 85.6135 74.6846 86.4297 74.2544 91.0388Z" fill="#F7B512"/>
<path d="M23.1663 30.0642C22.9627 27.8701 22.9239 27.4806 22.8715 27.1616C22.8273 26.9168 22.7674 26.7433 22.719 26.7144C22.6918 26.6658 22.5182 26.6061 22.2759 26.5615C21.9587 26.508 21.5727 26.4696 19.395 26.2638C21.5727 26.0581 21.9593 26.0204 22.2759 25.9655C22.5182 25.9216 22.6918 25.8619 22.719 25.8132C22.7667 25.7844 22.8266 25.6102 22.8715 25.366C22.9239 25.0471 22.9627 24.6575 23.1663 22.4641C23.3718 24.6575 23.4086 25.0478 23.4631 25.366C23.5066 25.6102 23.5652 25.7844 23.6149 25.8132C23.6421 25.8612 23.8157 25.9209 24.058 25.9655C24.3746 26.0197 24.7612 26.0581 26.9382 26.2638C24.7612 26.4696 24.3739 26.5073 24.058 26.5615C23.8157 26.6054 23.6421 26.6651 23.6149 26.7144C23.5658 26.7433 23.5073 26.9168 23.4631 27.1616C23.4093 27.4813 23.3718 27.8701 23.1663 30.0642Z" fill="#F7B512"/>
<path d="M66.92 89.8565C66.7933 88.4912 66.7692 88.2488 66.7365 88.0503C66.709 87.8979 66.6717 87.79 66.6417 87.772C66.6247 87.7417 66.5167 87.7046 66.3659 87.6769C66.1685 87.6436 65.9283 87.6197 64.5732 87.4916C65.9283 87.3636 66.1689 87.3401 66.3659 87.306C66.5167 87.2787 66.6247 87.2415 66.6417 87.2112C66.6713 87.1933 66.7086 87.0849 66.7365 86.933C66.7692 86.7345 66.7933 86.4921 66.92 85.1272C67.0479 86.4921 67.0708 86.7349 67.1046 86.933C67.1318 87.0849 67.1682 87.1933 67.1991 87.2112C67.216 87.2411 67.3241 87.2782 67.4749 87.306C67.6718 87.3397 67.9124 87.3636 69.2671 87.4916C67.9124 87.6197 67.6714 87.6431 67.4749 87.6769C67.3241 87.7042 67.216 87.7413 67.1991 87.772C67.1686 87.79 67.1322 87.8979 67.1046 88.0503C67.0712 88.2492 67.0479 88.4912 66.92 89.8565Z" fill="#F7B512"/>
<path d="M14.3233 45.5194C14.2122 44.4954 14.191 44.3136 14.1624 44.1647C14.1382 44.0505 14.1055 43.9695 14.0792 43.956C14.0643 43.9333 13.9695 43.9055 13.8372 43.8847C13.6641 43.8597 13.4534 43.8418 12.2646 43.7457C13.4534 43.6497 13.6645 43.6321 13.8372 43.6065C13.9695 43.586 14.0643 43.5582 14.0792 43.5354C14.1052 43.522 14.1379 43.4407 14.1624 43.3267C14.191 43.1779 14.2122 42.9961 14.3233 41.9724C14.4355 42.9961 14.4556 43.1782 14.4853 43.3267C14.5091 43.4407 14.541 43.522 14.5682 43.5354C14.583 43.5578 14.6778 43.5857 14.8101 43.6065C14.9829 43.6318 15.1939 43.6497 16.3823 43.7457C15.1939 43.8418 14.9825 43.8594 14.8101 43.8847C14.6778 43.9051 14.583 43.933 14.5682 43.956C14.5414 43.9695 14.5095 44.0505 14.4853 44.1647C14.4559 44.3139 14.4355 44.4954 14.3233 45.5194Z" fill="#F7B512"/>
<path d="M8.14762 55.5692C7.7648 51.4718 7.69283 50.7457 7.59543 50.1491C7.51074 49.6937 7.40063 49.3677 7.31001 49.3158C7.2575 49.2256 6.93396 49.1141 6.48085 49.0298C5.88714 48.9302 5.16385 48.8587 1.08838 48.4748C5.1647 48.091 5.88714 48.0186 6.48085 47.9191C6.93396 47.8356 7.25834 47.7242 7.31001 47.6339C7.39978 47.5812 7.51074 47.256 7.59543 46.8006C7.69283 46.204 7.7648 45.4771 8.14762 41.3813C8.52959 45.4779 8.59989 46.204 8.69983 46.8006C8.78283 47.256 8.89377 47.582 8.98355 47.6339C9.03521 47.7242 9.3596 47.8356 9.81356 47.9191C10.4064 48.0186 11.1297 48.091 15.206 48.4748C11.1297 48.8587 10.4064 48.9302 9.81356 49.0298C9.3596 49.1141 9.03436 49.2247 8.98355 49.3158C8.89377 49.3686 8.78283 49.6937 8.69983 50.1491C8.59989 50.7457 8.52959 51.4718 8.14762 55.5692Z" fill="#F7B512"/>
<path d="M14.0285 62.6632C13.7734 59.9311 13.7257 59.448 13.6599 59.0493C13.6055 58.7451 13.5318 58.5275 13.4717 58.4933C13.4366 58.4329 13.22 58.3589 12.9172 58.3042C12.5215 58.237 12.0407 58.1891 9.32373 57.9327C12.0407 57.6775 12.5215 57.6285 12.9172 57.5636C13.2211 57.5066 13.4366 57.4326 13.4717 57.3733C13.5318 57.338 13.6055 57.1204 13.6599 56.8162C13.7268 56.4186 13.7745 55.9344 14.0285 53.2046C14.2836 55.9344 14.3324 56.4186 14.3981 56.8162C14.4526 57.1216 14.5263 57.338 14.5875 57.3733C14.6215 57.4326 14.8392 57.5066 15.1397 57.5636C15.5366 57.6297 16.0174 57.6787 18.7355 57.9327C16.0186 58.1902 15.5366 58.2381 15.1397 58.3042C14.8381 58.3589 14.6215 58.4329 14.5875 58.4933C14.5263 58.5275 14.4526 58.7462 14.3981 59.0493C14.3324 59.448 14.2836 59.93 14.0285 62.6632Z" fill="#F7B512"/>
<path d="M92.8688 57.3427C92.5189 53.5877 92.4551 52.9219 92.3634 52.3751C92.2872 51.9553 92.1877 51.6577 92.1053 51.6107C92.0586 51.5292 91.76 51.4274 91.3449 51.349C90.8037 51.2582 90.1429 51.1924 86.4155 50.8399C90.1413 50.4875 90.8037 50.4217 91.3449 50.3324C91.7616 50.254 92.0586 50.1522 92.1053 50.0708C92.1877 50.0238 92.2872 49.723 92.3634 49.3063C92.4567 48.7595 92.5205 48.0922 92.8688 44.3372C93.2202 48.0906 93.2839 48.7595 93.3757 49.3063C93.4519 49.7245 93.553 50.0238 93.6338 50.0708C93.6821 50.1522 93.9791 50.254 94.3911 50.3324C94.9354 50.4232 95.5947 50.489 99.3236 50.8399C95.5963 51.194 94.9354 51.2597 94.3911 51.349C93.9775 51.4274 93.6821 51.5292 93.6338 51.6107C93.553 51.6577 93.4519 51.9569 93.3757 52.3751C93.2824 52.9219 93.2187 53.5877 92.8688 57.3427Z" fill="#F7B512"/>
<path d="M82.576 43.5863L78.2012 43.4506L82.576 43.3149C83.6667 43.1332 84.0469 42.7492 84.2271 41.6513L84.3618 37.2432L84.497 41.6513C84.6763 42.7492 85.0575 43.1332 86.1482 43.3149L90.5225 43.4506L86.1482 43.5863C85.0575 43.7675 84.6763 44.1515 84.497 45.2494L84.3618 49.6576L84.2271 45.2494C84.0469 44.1515 83.6667 43.7675 82.576 43.5863Z" fill="#F7B512"/>
<path d="M36.2761 83.8112L31.2764 83.6496L36.2761 83.488C37.5227 83.2718 37.9572 82.8146 38.1632 81.5076L38.3171 76.2598L38.4716 81.5076C38.6766 82.8146 39.1122 83.2718 40.3587 83.488L45.3579 83.6496L40.3587 83.8112C39.1122 84.0268 38.6766 84.484 38.4716 85.791L38.3171 91.0388L38.1632 85.791C37.9572 84.484 37.5227 84.0268 36.2761 83.8112Z" fill="#F7B512"/>
<path d="M50.749 22.3599C35.4323 22.3599 22.9712 34.7593 22.9712 50.0001C22.9712 65.241 35.4323 77.6404 50.749 77.6404C66.0656 77.6404 78.5268 65.241 78.5268 50.0001C78.5268 34.7593 66.0656 22.3599 50.749 22.3599ZM53.5268 63.8203H47.9712V47.2361H53.5268V63.8203ZM53.5268 41.708H47.9712V36.18H53.5268V41.708Z" fill="#F7B512"/>
</svg>
