<svg width="100" height="100" viewBox="0 0 100 100" fill="none" xmlns="http://www.w3.org/2000/svg">
<path d="M74.4806 85.1213C74.0442 80.4527 73.9628 79.6258 73.8504 78.9467C73.7551 78.4268 73.6288 78.0546 73.5249 77.9956C73.466 77.8922 73.0962 77.7648 72.5768 77.67C71.8994 77.5565 71.0746 77.4749 66.4175 77.0374C71.0746 76.5999 71.8994 76.5176 72.5768 76.4049C73.0962 76.3101 73.4652 76.1827 73.5249 76.0793C73.6288 76.0195 73.7551 75.648 73.8504 75.1282C73.9636 74.449 74.045 73.6215 74.4806 68.9536C74.9178 73.6215 74.9992 74.449 75.1116 75.1282C75.207 75.648 75.3341 76.0187 75.4364 76.0793C75.4961 76.1827 75.8674 76.3101 76.3852 76.4049C77.0635 76.5184 77.8882 76.5999 82.5438 77.0374C77.8882 77.4749 77.0635 77.5565 76.3852 77.67C75.8674 77.7648 75.4969 77.8922 75.4364 77.9956C75.3341 78.0538 75.207 78.4268 75.1116 78.9467C74.9992 79.6258 74.9186 80.4527 74.4806 85.1213Z" fill="#ADD656"/>
<path d="M22.4747 23.3585C22.2675 21.1361 22.2281 20.7415 22.1747 20.4184C22.1297 20.1704 22.0687 19.9946 22.0195 19.9654C21.9918 19.9161 21.815 19.8557 21.5684 19.8105C21.2454 19.7563 20.8525 19.7174 18.6357 19.509C20.8525 19.3006 21.2461 19.2624 21.5684 19.2068C21.815 19.1623 21.9918 19.1019 22.0195 19.0526C22.068 19.0234 22.129 18.8469 22.1747 18.5996C22.2281 18.2765 22.2675 17.8819 22.4747 15.6602C22.684 17.8819 22.7214 18.2772 22.7769 18.5996C22.8212 18.8469 22.8808 19.0234 22.9314 19.0526C22.9591 19.1012 23.1358 19.1616 23.3825 19.2068C23.7047 19.2617 24.0983 19.3006 26.3144 19.509C24.0983 19.7174 23.704 19.7556 23.3825 19.8105C23.1358 19.855 22.9591 19.9154 22.9314 19.9654C22.8815 19.9946 22.8219 20.1704 22.7769 20.4184C22.7221 20.7422 22.684 21.1361 22.4747 23.3585Z" fill="#ADD656"/>
<path d="M67.0144 83.9237C66.8854 82.5408 66.8609 82.2952 66.8277 82.0942C66.7996 81.9399 66.7617 81.8305 66.7311 81.8123C66.7138 81.7816 66.6039 81.744 66.4503 81.7159C66.2494 81.6822 66.0049 81.658 64.6255 81.5283C66.0049 81.3986 66.2498 81.3748 66.4503 81.3402C66.6039 81.3126 66.7138 81.275 66.7311 81.2443C66.7612 81.2261 66.7992 81.1163 66.8277 80.9624C66.8609 80.7614 66.8854 80.5158 67.0144 79.1333C67.1446 80.5158 67.1679 80.7618 67.2024 80.9624C67.23 81.1163 67.267 81.2261 67.2985 81.2443C67.3158 81.2745 67.4257 81.3121 67.5792 81.3402C67.7797 81.3744 68.0247 81.3986 69.4037 81.5283C68.0247 81.658 67.7793 81.6818 67.5792 81.7159C67.4257 81.7436 67.3158 81.7812 67.2985 81.8123C67.2675 81.8305 67.2304 81.9399 67.2024 82.0942C67.1683 82.2956 67.1446 82.5408 67.0144 83.9237Z" fill="#ADD656"/>
<path d="M13.4731 39.0135C13.36 37.9763 13.3384 37.7921 13.3093 37.6413C13.2847 37.5256 13.2514 37.4435 13.2245 37.4299C13.2094 37.4069 13.113 37.3787 12.9783 37.3576C12.802 37.3323 12.5875 37.3142 11.3774 37.2169C12.5875 37.1196 12.8024 37.1018 12.9783 37.0759C13.113 37.0551 13.2094 37.0269 13.2245 37.0039C13.251 36.9903 13.2843 36.9079 13.3093 36.7925C13.3384 36.6417 13.36 36.4575 13.4731 35.4207C13.5873 36.4575 13.6077 36.642 13.638 36.7925C13.6622 36.9079 13.6947 36.9903 13.7223 37.0039C13.7375 37.0266 13.8339 37.0548 13.9686 37.0759C14.1445 37.1015 14.3594 37.1196 15.5691 37.2169C14.3594 37.3142 14.1441 37.332 13.9686 37.3576C13.8339 37.3784 13.7375 37.4066 13.7223 37.4299C13.6951 37.4435 13.6626 37.5256 13.638 37.6413C13.6081 37.7924 13.5873 37.9763 13.4731 39.0135Z" fill="#ADD656"/>
<path d="M7.18605 49.193C6.79636 45.0426 6.72309 44.3072 6.62394 43.7028C6.53773 43.2416 6.42564 42.9114 6.33339 42.8588C6.27994 42.7674 5.95059 42.6544 5.48934 42.5691C4.88497 42.4682 4.14869 42.3958 0 42.007C4.14955 41.6181 4.88497 41.5449 5.48934 41.444C5.95059 41.3595 6.2808 41.2466 6.33339 41.1552C6.42478 41.1017 6.53773 40.7724 6.62394 40.3111C6.72309 39.7067 6.79636 38.9705 7.18605 34.8218C7.57488 38.9713 7.64645 39.7067 7.74818 40.3111C7.83267 40.7724 7.94561 41.1026 8.037 41.1552C8.08959 41.2466 8.4198 41.3595 8.88192 41.444C9.48542 41.5449 10.2217 41.6181 14.3713 42.007C10.2217 42.3958 9.48542 42.4682 8.88192 42.5691C8.4198 42.6544 8.08873 42.7665 8.037 42.8588C7.94561 42.9122 7.83267 43.2416 7.74818 43.7028C7.64645 44.3072 7.57488 45.0426 7.18605 49.193Z" fill="#ADD656"/>
<path d="M13.1726 56.3787C12.9129 53.6113 12.8644 53.122 12.7974 52.7181C12.742 52.41 12.667 52.1895 12.6058 52.1549C12.57 52.0937 12.3495 52.0187 12.0413 51.9633C11.6385 51.8953 11.149 51.8468 8.3833 51.5871C11.149 51.3286 11.6385 51.279 12.0413 51.2132C12.3507 51.1555 12.57 51.0805 12.6058 51.0205C12.667 50.9847 12.742 50.7643 12.7974 50.4562C12.8655 50.0534 12.914 49.5629 13.1726 46.7979C13.4323 49.5629 13.4819 50.0534 13.5489 50.4562C13.6043 50.7655 13.6793 50.9847 13.7416 51.0205C13.7763 51.0805 13.9979 51.1555 14.3038 51.2132C14.7078 51.2801 15.1972 51.3298 17.9641 51.5871C15.1984 51.8479 14.7078 51.8964 14.3038 51.9633C13.9967 52.0187 13.7763 52.0937 13.7416 52.1549C13.6793 52.1895 13.6043 52.4111 13.5489 52.7181C13.4819 53.122 13.4323 53.6101 13.1726 56.3787Z" fill="#ADD656"/>
<path d="M93.429 50.9896C93.0729 47.186 93.008 46.5116 92.9146 45.9578C92.837 45.5325 92.7357 45.2311 92.6518 45.1835C92.6043 45.1009 92.3004 44.9978 91.8777 44.9184C91.3269 44.8264 90.6542 44.7598 86.8599 44.4027C90.6526 44.0457 91.3269 43.9791 91.8777 43.8886C92.302 43.8093 92.6043 43.7061 92.6518 43.6236C92.7357 43.576 92.837 43.2713 92.9146 42.8493C93.0095 42.2955 93.0745 41.6195 93.429 37.8159C93.7868 41.6179 93.8517 42.2955 93.9451 42.8493C94.0226 43.2729 94.1255 43.576 94.2079 43.6236C94.2569 43.7061 94.5593 43.8093 94.9787 43.8886C95.5328 43.9806 96.2039 44.0473 99.9998 44.4027C96.2055 44.7614 95.5328 44.828 94.9787 44.9184C94.5577 44.9978 94.2569 45.1009 94.2079 45.1835C94.1255 45.2311 94.0226 45.5341 93.9451 45.9578C93.8501 46.5116 93.7852 47.186 93.429 50.9896Z" fill="#ADD656"/>
<path d="M82.9514 37.0553L78.498 36.9178L82.9514 36.7803C84.0617 36.5963 84.4487 36.2074 84.6322 35.0952L84.7694 30.6301L84.907 35.0952C85.0895 36.2074 85.4775 36.5963 86.5878 36.7803L91.0407 36.9178L86.5878 37.0553C85.4775 37.2388 85.0895 37.6277 84.907 38.7399L84.7694 43.205L84.6322 38.7399C84.4487 37.6277 84.0617 37.2388 82.9514 37.0553Z" fill="#ADD656"/>
<path d="M35.8201 77.8001L30.7305 77.6364L35.8201 77.4728C37.089 77.2538 37.5313 76.7907 37.741 75.4667L37.8977 70.1511L38.055 75.4667C38.2636 76.7907 38.707 77.2538 39.9759 77.4728L45.065 77.6364L39.9759 77.8001C38.707 78.0185 38.2636 78.4816 38.055 79.8056L37.8977 85.1212L37.741 79.8056C37.5313 78.4816 37.089 78.0185 35.8201 77.8001Z" fill="#ADD656"/>
<path d="M56.2945 28.8337L35.2083 51.7384L22.074 43.697L17.9639 47.3604L35.6551 64.5151L58.7068 30.7415L56.2945 28.8337Z" fill="url(#paint0_linear_874_71217)"/>
<path d="M75.7123 28.9836L54.8651 52.0959L49.0574 48.7008L45.0366 54.7763L55.2225 64.8727L78.2743 31.0097L75.7123 28.9836Z" fill="url(#paint1_linear_874_71217)"/>
<defs>
<linearGradient id="paint0_linear_874_71217" x1="38.3353" y1="28.8337" x2="38.3353" y2="64.5151" gradientUnits="userSpaceOnUse">
<stop stop-color="#4FA800"/>
<stop offset="1" stop-color="#ABD653"/>
</linearGradient>
<linearGradient id="paint1_linear_874_71217" x1="61.6555" y1="28.9836" x2="61.6555" y2="64.8727" gradientUnits="userSpaceOnUse">
<stop stop-color="#4FA800"/>
<stop offset="1" stop-color="#ABD653"/>
</linearGradient>
</defs>
</svg>
